<svg width="512" height="512" viewBox="0 0 512 512" fill="none" xmlns="http://www.w3.org/2000/svg">
<path d="M402.279 72C414.195 72 422.765 80.6301 428.661 94.001C434.461 107.153 438.334 130.202 440.603 162.461L440.817 165.611L440.818 165.638L440.82 165.663C442.672 199.012 446.936 236.124 453.623 277.009C460.46 316.6 467.967 348.525 476.111 372.869L476.901 375.202L476.908 375.224L476.916 375.244C482.187 391.062 485 403.98 485 413.744C485 421.171 483.905 427.576 481.062 432.274C477.975 437.377 473.101 440 467.14 440C461.157 440 455.724 437.325 450.914 432.862C446.151 428.444 441.768 422.077 437.667 414.064C429.462 398.034 421.851 374.341 414.739 343.259C401.425 285.071 392.06 218.283 386.623 142.924C385.648 145.4 384.177 148.728 382.265 152.83C379.963 158.571 376.015 167.401 370.463 179.25C365.112 191.092 358.44 202.714 350.462 214.116L350.439 214.149L350.416 214.182C342.495 225.124 333.645 236.048 323.873 246.957C314.146 258.245 302.658 267.401 289.437 274.403L289.386 274.43L289.334 274.456C276.027 281.112 262.405 284.494 248.517 284.494C227.658 284.494 206.082 274.372 183.894 255.318C161.698 236.258 138.449 207.89 114.111 170.445C112.988 168.871 111.93 167.358 110.936 165.91V375.706C110.936 382.956 108.388 389.274 103.321 394.344C98.254 399.413 91.9369 401.963 84.6885 401.963C77.4399 401.963 71.1221 399.413 66.0547 394.344L65.9707 394.26L65.8906 394.172C61.2598 389.076 59 382.812 59 375.706V127.903C59 111.877 61.498 99.0038 67.1797 89.9951C73.1059 80.5989 82.1781 75.916 93.6348 75.916C102.51 75.9161 110.788 80.377 118.414 88.0049C126.345 95.5774 138.155 111.49 153.705 135.192C175.247 167.147 193.894 191.504 209.659 208.379C225.779 225.232 239.44 232.541 250.753 232.541C263.043 232.541 277.052 224.451 292.779 205.79C308.444 187.203 321.988 164.895 333.378 138.808C333.381 138.799 333.384 138.791 333.388 138.782C333.392 138.771 333.397 138.76 333.401 138.749L333.439 138.652C333.444 138.642 333.449 138.631 333.453 138.62L333.491 138.523C333.495 138.513 333.5 138.503 333.504 138.492L333.529 138.428C333.533 138.417 333.538 138.407 333.542 138.396C333.546 138.386 333.55 138.375 333.555 138.364L333.58 138.302C333.584 138.291 333.589 138.28 333.593 138.27L333.631 138.176C333.635 138.165 333.638 138.155 333.643 138.145L333.681 138.051C333.685 138.04 333.688 138.03 333.692 138.02C333.696 138.009 333.701 137.999 333.705 137.989C333.709 137.979 333.714 137.968 333.718 137.958C333.722 137.948 333.725 137.937 333.729 137.927C333.734 137.917 333.738 137.907 333.742 137.896C333.746 137.886 333.75 137.875 333.754 137.865L333.779 137.805C333.783 137.795 333.787 137.784 333.791 137.774C333.795 137.764 333.799 137.753 333.803 137.743C333.807 137.733 333.811 137.723 333.815 137.713C333.819 137.703 333.823 137.693 333.827 137.683C333.831 137.673 333.836 137.662 333.84 137.652C333.844 137.642 333.848 137.632 333.852 137.622C333.855 137.612 333.859 137.603 333.863 137.593C333.867 137.583 333.872 137.572 333.876 137.562L333.899 137.502C333.903 137.492 333.907 137.482 333.911 137.473C333.915 137.463 333.92 137.452 333.924 137.442C333.928 137.433 333.932 137.423 333.936 137.413C333.94 137.403 333.943 137.393 333.947 137.383L334.064 137.09C334.068 137.08 334.072 137.071 334.076 137.062L334.1 137.003C334.103 136.994 334.107 136.984 334.11 136.975C334.114 136.965 334.118 136.956 334.122 136.946C334.126 136.937 334.13 136.927 334.134 136.917C334.138 136.908 334.141 136.898 334.145 136.889L334.168 136.832C334.172 136.823 334.175 136.813 334.179 136.804L334.202 136.747C334.206 136.738 334.209 136.728 334.213 136.719C334.217 136.709 334.221 136.7 334.225 136.69C334.228 136.681 334.232 136.671 334.235 136.662C334.239 136.653 334.243 136.644 334.247 136.635L334.269 136.578C334.272 136.569 334.277 136.56 334.28 136.551C334.284 136.542 334.287 136.532 334.291 136.522C334.295 136.513 334.299 136.504 334.303 136.495L334.324 136.44C334.328 136.431 334.331 136.421 334.335 136.412C334.339 136.403 334.343 136.394 334.347 136.385L334.368 136.33C334.372 136.321 334.375 136.313 334.379 136.304L334.411 136.222C334.415 136.213 334.419 136.204 334.423 136.195C334.426 136.186 334.43 136.177 334.434 136.168C334.437 136.159 334.441 136.15 334.444 136.142C334.448 136.133 334.452 136.123 334.455 136.114C334.459 136.106 334.461 136.097 334.465 136.088C334.468 136.079 334.472 136.069 334.476 136.061L334.529 135.929C334.533 135.92 334.536 135.911 334.539 135.902L334.561 135.85C334.564 135.841 334.567 135.833 334.57 135.824L334.592 135.771C334.595 135.763 334.598 135.755 334.602 135.746C334.605 135.737 334.609 135.728 334.612 135.72C334.616 135.711 334.619 135.703 334.622 135.694C334.625 135.686 334.629 135.677 334.633 135.669C334.636 135.66 334.639 135.651 334.643 135.643C334.646 135.634 334.65 135.626 334.653 135.617C334.657 135.609 334.66 135.6 334.663 135.592C334.666 135.583 334.67 135.575 334.674 135.566C334.677 135.558 334.68 135.549 334.684 135.541C334.687 135.533 334.691 135.524 334.694 135.516C334.698 135.507 334.701 135.499 334.704 135.49C334.707 135.482 334.711 135.474 334.714 135.466C334.717 135.457 334.721 135.449 334.725 135.44C334.728 135.432 334.731 135.423 334.734 135.415C334.738 135.407 334.741 135.399 334.744 135.391C334.747 135.382 334.751 135.374 334.754 135.365C334.757 135.357 334.76 135.349 334.764 135.341C334.767 135.333 334.771 135.324 334.774 135.315L334.794 135.267C334.797 135.258 334.8 135.249 334.804 135.241L334.853 135.119C334.856 135.111 334.859 135.104 334.862 135.096L334.882 135.047C334.885 135.039 334.887 135.03 334.891 135.022C334.894 135.015 334.897 135.007 334.9 134.999C334.904 134.991 334.907 134.983 334.91 134.975C334.913 134.967 334.917 134.959 334.92 134.951C334.923 134.943 334.926 134.935 334.929 134.928C334.932 134.92 334.935 134.911 334.938 134.903L334.958 134.856C334.961 134.849 334.964 134.841 334.967 134.833C334.97 134.825 334.973 134.817 334.977 134.81C334.98 134.802 334.982 134.794 334.985 134.786C334.988 134.778 334.992 134.77 334.995 134.763C334.998 134.755 335.001 134.747 335.004 134.739C335.007 134.732 335.011 134.724 335.014 134.716C335.017 134.708 335.019 134.701 335.022 134.693C335.026 134.686 335.029 134.678 335.032 134.67C335.035 134.662 335.038 134.655 335.041 134.647C335.044 134.64 335.048 134.632 335.051 134.624C335.054 134.617 335.057 134.609 335.06 134.602C335.063 134.594 335.065 134.586 335.068 134.578C335.071 134.571 335.075 134.563 335.078 134.556L335.096 134.511C335.099 134.503 335.102 134.495 335.105 134.487L335.132 134.42C335.135 134.413 335.138 134.406 335.141 134.398L335.158 134.354C335.161 134.346 335.164 134.339 335.167 134.332L335.185 134.287L335.202 134.244C335.205 134.237 335.208 134.229 335.211 134.222L335.255 134.114C335.258 134.107 335.26 134.1 335.263 134.093L335.28 134.05C335.283 134.043 335.285 134.035 335.288 134.028C335.291 134.021 335.294 134.015 335.297 134.008C335.3 134.001 335.303 133.993 335.306 133.986C335.308 133.98 335.311 133.973 335.313 133.966C335.316 133.959 335.319 133.951 335.322 133.944C335.325 133.937 335.328 133.931 335.331 133.924C335.334 133.917 335.336 133.909 335.339 133.902C335.342 133.895 335.345 133.889 335.348 133.882C335.35 133.875 335.353 133.868 335.355 133.861C335.358 133.854 335.362 133.848 335.364 133.841L335.38 133.8C335.383 133.793 335.386 133.786 335.389 133.779L335.404 133.738C335.407 133.732 335.41 133.725 335.413 133.718C335.416 133.711 335.418 133.705 335.421 133.698L335.437 133.657C335.439 133.651 335.443 133.644 335.445 133.638C335.448 133.631 335.45 133.624 335.453 133.617L335.477 133.559C335.479 133.552 335.482 133.545 335.484 133.538L335.516 133.46C335.518 133.454 335.521 133.448 335.523 133.441L335.539 133.402C335.542 133.396 335.544 133.39 335.547 133.384C335.549 133.377 335.552 133.371 335.555 133.364C335.557 133.358 335.559 133.351 335.562 133.345L335.577 133.308C335.58 133.301 335.582 133.294 335.585 133.288C335.587 133.282 335.589 133.276 335.592 133.27L335.607 133.232C335.61 133.226 335.612 133.22 335.614 133.214C335.617 133.208 335.62 133.201 335.622 133.195C335.625 133.189 335.626 133.183 335.629 133.177C335.631 133.171 335.634 133.164 335.637 133.158C335.639 133.152 335.641 133.146 335.644 133.14C335.646 133.134 335.649 133.128 335.651 133.122C335.654 133.116 335.656 133.11 335.658 133.104C335.661 133.097 335.664 133.091 335.666 133.085C335.668 133.079 335.671 133.073 335.673 133.067C335.675 133.061 335.677 133.055 335.68 133.049C335.682 133.043 335.685 133.037 335.688 133.031C335.69 133.025 335.692 133.019 335.694 133.014C335.697 133.008 335.699 133.001 335.701 132.995C335.704 132.989 335.707 132.983 335.709 132.978L335.729 132.925C335.732 132.919 335.735 132.913 335.737 132.907L335.751 132.872C335.753 132.867 335.756 132.861 335.758 132.855L335.771 132.82C335.774 132.815 335.776 132.809 335.778 132.804C335.781 132.798 335.783 132.792 335.785 132.786L335.799 132.753C335.801 132.747 335.803 132.741 335.806 132.735L335.819 132.702C335.822 132.697 335.823 132.691 335.825 132.686L335.846 132.636C335.848 132.63 335.849 132.625 335.852 132.619C335.854 132.614 335.856 132.609 335.858 132.604C335.861 132.598 335.863 132.592 335.865 132.587C335.867 132.581 335.869 132.576 335.871 132.57C335.873 132.565 335.876 132.56 335.878 132.555C335.88 132.549 335.883 132.543 335.885 132.538C335.887 132.533 335.889 132.528 335.891 132.522C335.893 132.517 335.895 132.511 335.897 132.506C335.9 132.501 335.901 132.495 335.903 132.49C335.905 132.485 335.908 132.48 335.91 132.475C335.912 132.469 335.914 132.464 335.916 132.459C335.918 132.454 335.921 132.449 335.923 132.443L335.935 132.412C335.937 132.407 335.939 132.402 335.941 132.396L335.953 132.365C335.955 132.36 335.958 132.356 335.96 132.351L335.972 132.319C335.974 132.314 335.976 132.31 335.978 132.305C335.98 132.3 335.982 132.294 335.984 132.289L335.996 132.26C335.998 132.255 336 132.249 336.002 132.244L336.037 132.156C336.039 132.152 336.041 132.147 336.043 132.143L336.055 132.113C336.056 132.109 336.058 132.104 336.06 132.1C336.061 132.095 336.064 132.09 336.065 132.085C336.067 132.08 336.069 132.076 336.071 132.071C336.073 132.067 336.075 132.061 336.077 132.057C336.079 132.052 336.08 132.047 336.082 132.043L336.094 132.016C336.096 132.011 336.097 132.006 336.099 132.001L336.11 131.974C336.112 131.969 336.113 131.964 336.115 131.96C336.117 131.956 336.119 131.952 336.121 131.947C336.123 131.943 336.124 131.938 336.126 131.934C336.128 131.929 336.13 131.924 336.132 131.92C336.134 131.915 336.135 131.911 336.137 131.906C336.138 131.902 336.141 131.898 336.143 131.894C336.144 131.889 336.146 131.884 336.147 131.88C336.149 131.876 336.152 131.871 336.153 131.867C336.155 131.863 336.156 131.858 336.158 131.854C336.16 131.849 336.161 131.845 336.163 131.841C336.165 131.837 336.167 131.832 336.169 131.828C336.171 131.824 336.172 131.82 336.174 131.815C336.176 131.811 336.177 131.806 336.179 131.802C336.18 131.798 336.182 131.793 336.184 131.789C336.185 131.785 336.188 131.781 336.189 131.776L336.199 131.751C336.201 131.747 336.203 131.743 336.204 131.739L336.214 131.714C336.215 131.71 336.217 131.706 336.219 131.702C336.22 131.698 336.222 131.694 336.224 131.689C336.225 131.686 336.227 131.682 336.229 131.678C336.23 131.674 336.232 131.669 336.233 131.665C336.235 131.661 336.237 131.657 336.238 131.653C336.24 131.649 336.242 131.645 336.243 131.641L336.258 131.605C336.259 131.602 336.26 131.598 336.262 131.594L336.276 131.559C336.278 131.555 336.279 131.551 336.28 131.548L336.29 131.524C336.291 131.521 336.293 131.517 336.294 131.514C336.295 131.51 336.297 131.506 336.299 131.502C336.3 131.498 336.302 131.495 336.304 131.491C336.305 131.487 336.306 131.483 336.308 131.479C336.309 131.476 336.311 131.472 336.312 131.469C336.314 131.465 336.315 131.462 336.316 131.458C336.318 131.454 336.32 131.451 336.321 131.447C336.323 131.444 336.324 131.439 336.325 131.436C336.327 131.432 336.328 131.428 336.329 131.425C336.331 131.421 336.333 131.418 336.334 131.414C336.335 131.411 336.337 131.408 336.338 131.404C336.339 131.401 336.34 131.397 336.342 131.394C336.343 131.39 336.345 131.386 336.347 131.383C336.348 131.379 336.349 131.376 336.351 131.372C336.352 131.369 336.353 131.366 336.354 131.362C336.356 131.359 336.358 131.355 336.359 131.352C336.361 131.348 336.362 131.344 336.363 131.341L336.371 131.321C336.372 131.318 336.374 131.314 336.375 131.311L336.41 131.223C336.411 131.22 336.413 131.217 336.414 131.214L336.422 131.194C336.423 131.191 336.425 131.188 336.426 131.186C336.427 131.183 336.428 131.18 336.429 131.177C336.43 131.174 336.431 131.17 336.433 131.167C336.434 131.164 336.435 131.161 336.437 131.158C336.438 131.155 336.438 131.152 336.439 131.149L336.447 131.132C336.448 131.129 336.449 131.126 336.45 131.123C336.451 131.12 336.453 131.117 336.454 131.114C336.455 131.111 336.456 131.108 336.457 131.105C336.458 131.103 336.46 131.1 336.461 131.097C336.462 131.094 336.463 131.091 336.464 131.088C336.465 131.085 336.467 131.082 336.468 131.079C336.469 131.077 336.47 131.074 336.471 131.071C336.472 131.068 336.474 131.065 336.475 131.062C336.476 131.06 336.477 131.057 336.478 131.055C336.479 131.052 336.48 131.049 336.481 131.046L336.487 131.03C336.488 131.028 336.49 131.024 336.491 131.021L336.503 130.99C336.504 130.988 336.506 130.985 336.507 130.982C336.508 130.98 336.509 130.977 336.51 130.975C336.511 130.972 336.512 130.97 336.513 130.968L336.519 130.952C336.519 130.95 336.521 130.948 336.521 130.945C336.522 130.943 336.523 130.94 336.524 130.938C336.525 130.935 336.526 130.933 336.527 130.931C336.528 130.928 336.529 130.925 336.53 130.923L336.539 130.902C336.54 130.9 336.54 130.898 336.541 130.896L336.553 130.868C336.554 130.866 336.554 130.864 336.555 130.861C336.556 130.859 336.557 130.857 336.558 130.854C336.558 130.852 336.56 130.851 336.561 130.849C336.561 130.846 336.562 130.844 336.562 130.842C336.563 130.84 336.565 130.838 336.565 130.836C336.566 130.834 336.567 130.831 336.567 130.829C336.568 130.827 336.57 130.825 336.57 130.823C336.571 130.821 336.571 130.818 336.572 130.816C336.573 130.814 336.574 130.813 336.575 130.811C336.576 130.809 336.576 130.807 336.577 130.805C336.578 130.803 336.579 130.801 336.58 130.799C336.581 130.797 336.581 130.795 336.582 130.793C336.583 130.791 336.584 130.789 336.585 130.787L336.589 130.775C336.59 130.773 336.591 130.771 336.592 130.77C336.593 130.768 336.593 130.765 336.594 130.764C336.594 130.762 336.595 130.76 336.596 130.759C336.596 130.757 336.598 130.755 336.599 130.753C336.599 130.751 336.6 130.75 336.601 130.748C336.601 130.746 336.602 130.744 336.603 130.742C336.603 130.741 336.604 130.739 336.604 130.737C336.605 130.736 336.606 130.733 336.606 130.731L336.61 130.722C336.611 130.72 336.613 130.718 336.613 130.717L336.621 130.697C336.622 130.696 336.621 130.694 336.622 130.692C336.623 130.691 336.623 130.689 336.624 130.688C336.625 130.686 336.625 130.685 336.626 130.684L336.63 130.674C336.63 130.672 336.631 130.671 336.632 130.67C336.632 130.668 336.632 130.666 336.633 130.665L336.639 130.653C336.639 130.652 336.639 130.65 336.64 130.648L336.644 130.641C336.644 130.639 336.644 130.638 336.645 130.637C336.645 130.636 336.646 130.634 336.646 130.633C336.647 130.632 336.647 130.631 336.647 130.63C336.648 130.629 336.649 130.627 336.649 130.626C336.65 130.625 336.65 130.623 336.65 130.622C336.651 130.621 336.652 130.62 336.652 130.619L336.654 130.611C336.655 130.61 336.656 130.609 336.656 130.608C336.657 130.607 336.657 130.606 336.657 130.605C336.658 130.604 336.659 130.603 336.659 130.602L336.662 130.593C336.662 130.592 336.664 130.591 336.664 130.59L336.669 130.575L336.67 130.573L336.671 130.57L336.672 130.568L336.673 130.565L336.675 130.562L336.676 130.559L336.679 130.553V130.551L336.682 130.545V130.544L336.684 130.54V130.539L336.685 130.537V130.536L336.686 130.534L336.687 130.533V130.531L336.688 130.53V130.529L336.688 130.528V130.526L336.689 130.525V130.523H336.69V130.521L336.884 130.038L337.173 129.605C337.333 129.365 337.401 129.203 337.429 129.119C337.443 129.078 337.447 129.051 337.449 129.039C337.451 129.027 337.451 129.022 337.451 129.021C337.451 126.368 338.408 123.851 339.739 121.588C344.24 112.663 352.706 102.367 364.692 90.75L364.72 90.7236L364.748 90.6973C377.433 78.7762 389.981 72.0001 402.279 72Z" fill="black" stroke="white" stroke-width="10"/>
</svg>
